<?xml version="1.0" encoding="UTF-8"?><svg id="_레이어_2" xmlns="http://www.w3.org/2000/svg" viewBox="0 0 728.91 841.43"><g id="_레이어_1-2"><path d="M375.81,384.07l-.02-336.41c0-11.75-8.2-21.27-18.31-21.27h-13.01v-13.61l31.46-.11c9.86-.04,19.48-3.49,27.64-9.92l3.48-2.75,2.67,3.95v8.67h.08v180.49c0,9.41,6.57,17.04,14.67,17.04h49.02c7.96,0,14.41-7.49,14.41-16.73v-.32c0-8.63-6.02-15.62-13.45-15.62h-4.1v-13.61h17.15c10.05,0,19.87-3.53,28.16-10.14l3.54-2.82,2.67,3.95v9.15h.03v137.88h-34v-61.56c0-9.1-6.35-16.48-14.19-16.48h-49.19c-8.13,0-14.72,7.65-14.72,17.1v182.06h-9.63v.08h-24.32l-.02-39.02Z" style="fill:#231815;"/><path d="M430.47,421.85c0,10.98-7.67,19.89-17.13,19.89h-45.45c-8.57,0-15.52-8.07-15.52-18.02v-64.77h-34v65.35c0,9.63-6.72,17.44-15.02,17.44h-41.43c-6.14,0-11.24-2.52-13.78-4.51-8.04-6.28-7.36-13.14-7.37-25.25v-53.02h-34s.28,48.29.28,48.29c.08,13.72,1.42,25.96,10.66,35.71,11.24,11.86,25.88,13.4,40.35,13.4h162.57c18.88,0,26.24,12.79,21.72,13.84-3.03.71-4.15-4.42-18.68,2.74-28.89,14.25-49.08,23.69-74.86,36-8.47,4.04-17,8.11-25.65,12.21-18.99,9-38.2,18.31-56.78,27.32-26.55,12.87-54.01,26.17-81.13,38.73-30.55,14.15-23.6,42.59-73.33,42.59-20.28,0-71.61-3.22-71.61-67.85v-58.54c0-22.61,13.84-62.49,43.23-62.49,5.52,0,10.08,3.16,14.54,10.37,7.33,11.84,26.24,12.64,34.72,1.32,11.86-15.84-7.98-27.07-23.63-28.81C45.53,416.7,0,478.28,0,529.71c0,54.58,38.39,114.52,105.5,114.52,22.21,0,55.14-7.09,89.45-22.97,27.35-12.66,54.92-26.03,81.58-38.95,18.53-8.98,37.69-18.27,56.57-27.21,8.68-4.11,17.22-8.19,25.72-12.25,25.64-12.23,49.85-23.79,75.97-35.54,27.67-12.45,29.59-33.65,29.69-45v-1.16s0-102.95,0-102.95h-34v63.65Z" style="fill:#231815;"/><path d="M659.89,504.54c.13,5.74,0,41.44,0,47.19v289.66h9.78v.04h59.24v-13.61h-15.17c-10.96,0-19.85-10.32-19.85-23.05v-303.96c0-11.85-2.7-23.49-7.82-33.75l-.17-.34c-4.91-8.98-9.82-17.97-14.73-26.95-6.51-11.91-15.48-28.32-29.21-53.45-4.91-8.99-9.73-18.01-14.65-26.99-7.15-13.07-13.01-26.08-27.69-33.69-11.01-5.71-24.52-7.97-36.98-5.4-14.14,2.91-23.93,12.17-30.8,23.23-5.25,8.44-9.16,19.29-9.16,19.29.03-8.97.36-17,.39-24.85v-1.25c0-1.4,0-2.87,0-4.43v-9.35l-2.67-3.95-3.75,2.96c-8.12,6.4-17.71,9.83-27.52,9.83h-22.71v13.61h8.98c9.04,0,16.36,8.51,16.36,19,0,37.46,0,73.36,0,112.04l53.58.14v-13.59c-2.57,0-5.18-.01-7.8-.02-6.56-.02-11.88-6.19-11.89-13.81-.02-14.75-.04-22.37,0-25.27.19-16.57.06-11.6.06-28.1,0-11.07,3.68-18.2,8.43-28.29,5.7-12.1,15.43-25.72,30.54-29.2,13.76-3.17,25.13.76,33.26,10.46,4.99,5.94,9.94,13.89,10.26,21.38.41,9.64-.23,35.22,4.2,44.66,6.52,13.9,13.74,27.34,20.95,40.77,3.43,6.38,7.01,12.7,10.31,19.18" style="fill:#231815;"/></g></svg>